<mxfile host="app.diagrams.net" modified="2024-02-02T06:41:19.882Z" agent="Mozilla/5.0 (Windows NT 10.0; Win64; x64) AppleWebKit/537.36 (KHTML, like Gecko) Chrome/120.0.0.0 Safari/537.36" etag="pUY1nQ5t5pypeTLFjwOa" version="22.1.21" type="github">
  <diagram name="Page-1" id="QuwvO9uDsyVGFcdLYQu6">
    <mxGraphModel dx="2074" dy="1106" grid="1" gridSize="10" guides="1" tooltips="1" connect="1" arrows="1" fold="1" page="1" pageScale="1" pageWidth="700" pageHeight="1000" math="0" shadow="0">
      <root>
        <mxCell id="0" />
        <mxCell id="1" parent="0" />
        <mxCell id="I0OJYPrT1LQy-Y8b94d--1" value="&lt;font style=&quot;font-size: 18px;&quot;&gt;0x5ffd0c&lt;/font&gt;" style="rounded=0;whiteSpace=wrap;html=1;" vertex="1" parent="1">
          <mxGeometry x="150" y="400" width="120" height="60" as="geometry" />
        </mxCell>
        <mxCell id="I0OJYPrT1LQy-Y8b94d--2" value="&lt;font style=&quot;font-size: 18px;&quot;&gt;0x5ffd00&lt;/font&gt;" style="rounded=0;whiteSpace=wrap;html=1;" vertex="1" parent="1">
          <mxGeometry x="150" y="460" width="120" height="60" as="geometry" />
        </mxCell>
        <mxCell id="I0OJYPrT1LQy-Y8b94d--3" value="&lt;font style=&quot;font-size: 18px;&quot;&gt;30&lt;/font&gt;" style="rounded=0;whiteSpace=wrap;html=1;" vertex="1" parent="1">
          <mxGeometry x="500" y="400" width="120" height="60" as="geometry" />
        </mxCell>
        <mxCell id="I0OJYPrT1LQy-Y8b94d--4" value="&lt;font style=&quot;font-size: 18px;&quot;&gt;0x5ffd0c&lt;/font&gt;" style="rounded=0;whiteSpace=wrap;html=1;" vertex="1" parent="1">
          <mxGeometry x="500" y="460" width="120" height="60" as="geometry" />
        </mxCell>
        <mxCell id="I0OJYPrT1LQy-Y8b94d--5" value="&lt;font style=&quot;font-size: 24px;&quot;&gt;int* ptr&amp;nbsp;&lt;/font&gt;" style="text;html=1;strokeColor=none;fillColor=none;align=center;verticalAlign=middle;whiteSpace=wrap;rounded=0;" vertex="1" parent="1">
          <mxGeometry x="150" y="340" width="110" height="30" as="geometry" />
        </mxCell>
        <mxCell id="I0OJYPrT1LQy-Y8b94d--6" value="&lt;font style=&quot;font-size: 18px;&quot;&gt;地址&lt;/font&gt;" style="text;html=1;strokeColor=none;fillColor=none;align=center;verticalAlign=middle;whiteSpace=wrap;rounded=0;" vertex="1" parent="1">
          <mxGeometry x="80" y="475" width="60" height="30" as="geometry" />
        </mxCell>
        <mxCell id="I0OJYPrT1LQy-Y8b94d--7" value="&lt;font style=&quot;font-size: 18px;&quot;&gt;值&lt;/font&gt;" style="text;html=1;strokeColor=none;fillColor=none;align=center;verticalAlign=middle;whiteSpace=wrap;rounded=0;" vertex="1" parent="1">
          <mxGeometry x="80" y="415" width="60" height="30" as="geometry" />
        </mxCell>
        <mxCell id="I0OJYPrT1LQy-Y8b94d--8" value="&lt;font style=&quot;font-size: 18px;&quot;&gt;值&lt;/font&gt;" style="text;html=1;strokeColor=none;fillColor=none;align=center;verticalAlign=middle;whiteSpace=wrap;rounded=0;" vertex="1" parent="1">
          <mxGeometry x="420" y="415" width="60" height="30" as="geometry" />
        </mxCell>
        <mxCell id="I0OJYPrT1LQy-Y8b94d--9" value="&lt;font style=&quot;font-size: 18px;&quot;&gt;地址&lt;/font&gt;" style="text;html=1;strokeColor=none;fillColor=none;align=center;verticalAlign=middle;whiteSpace=wrap;rounded=0;" vertex="1" parent="1">
          <mxGeometry x="420" y="470" width="60" height="30" as="geometry" />
        </mxCell>
        <mxCell id="I0OJYPrT1LQy-Y8b94d--10" value="&lt;font style=&quot;font-size: 24px;&quot;&gt;int value&lt;/font&gt;" style="text;whiteSpace=wrap;html=1;" vertex="1" parent="1">
          <mxGeometry x="510" y="335" width="100" height="40" as="geometry" />
        </mxCell>
      </root>
    </mxGraphModel>
  </diagram>
</mxfile>
